<?xml version="1.0" encoding="UTF-8"?>
<svg id="Graphic_Elements" data-name="Graphic Elements" xmlns="http://www.w3.org/2000/svg" viewBox="0 0 576.68 576.68">
  <defs>
    <style>
      .cls-1 {
        fill: #010201;
      }
    </style>
  </defs>
  <path class="cls-1" d="M288.34,0C129.09,0,0,129.09,0,288.35c0,159.71,128.63,288.33,288.34,288.33,159.25,0,288.34-129.09,288.34-288.34C576.68,128.63,448.06,0,288.34,0ZM281.43,476l-146.96-146.92c-1.95-1.95-1.95-5.12,0-7.07l33.72-33.72c1.95-1.95,5.12-1.95,7.07,0l80.87,80.87V100.09c0-2.76,2.24-5,5-5h47.67c2.76,0,5,2.24,5,5v269.07l80.83-80.87c1.95-1.95,5.12-1.95,7.07,0l33.72,33.72c1.95,1.95,1.95,5.12,0,7.07l-146.92,146.92c-1.95,1.95-5.12,1.95-7.07,0Z"/>
</svg>