<?xml version="1.0" encoding="UTF-8"?>
<svg id="Graphic_Elements" data-name="Graphic Elements" xmlns="http://www.w3.org/2000/svg" viewBox="0 0 576.68 576.68">
  <path d="M279.38.14C127.25,4.78,4.78,127.26.14,279.38c-5.1,167.2,129.96,302.26,297.15,297.16,152.13-4.64,274.61-127.12,279.25-279.25C581.64,130.09,446.58-4.96,279.38.14ZM427.85,432.81H148.87c-2.76,0-5-2.24-5-5V148.87c0-2.76,2.24-5,5-5h278.98c2.76,0,5,2.24,5,5v278.94c0,2.76-2.24,5-5,5Z"/>
  <path d="M409.23,193.68c0,17.11-19.74,29.57-37.54,16.07-.25-.19-.47-.42-.65-.67-12.95-17.87-.55-37.19,16.41-37.19,12,0,21.79,9.74,21.79,21.79Z"/>
  <path d="M288.34,198.59c-51.87,0-93.85,42.38-93.2,94.45.63,50.21,41.56,91.25,91.77,92,52.13.78,94.64-41.25,94.64-93.2s-41.73-93.25-93.21-93.25ZM290.29,352.34c-35.01,1.1-63.58-27.55-62.44-62.52,1.03-31.66,26.81-57.44,58.47-58.48,34.98-1.14,63.62,27.43,62.52,62.44-.99,31.72-26.84,57.56-58.56,58.55Z"/>
</svg>