<?xml version="1.0" encoding="UTF-8"?>
<svg id="Graphic_Elements" data-name="Graphic Elements" xmlns="http://www.w3.org/2000/svg" viewBox="0 0 576.68 576.68">
  <path d="M288.34,0C129.09,0,0,129.09,0,288.34s129.09,288.34,288.34,288.34,288.34-129.09,288.34-288.34S447.59,0,288.34,0ZM209.48,416.06c.04,3.37-.81,4.36-4.27,4.31-17.13-.17-34.22-.13-51.35,0-2.73,0-3.59-.68-3.59-3.5.09-61,.09-122,.04-183,0-2.52.6-3.42,3.29-3.42,17.34.13,34.73.17,52.07,0,3.33-.04,3.8,1.24,3.8,4.1-.09,30.37-.04,60.74-.04,91.11s-.09,60.27.04,90.39ZM179.92,204.36c-18.62,0-34.09-15.42-34.17-34.05-.04-18.84,15.42-34.3,34.26-34.3s34.13,15.38,34.13,34c.04,18.92-15.34,34.34-34.22,34.34ZM430.88,416.49c0,3.12-.85,3.93-3.93,3.89-17.09-.13-34.22-.13-51.35,0-3.03.04-3.67-.9-3.67-3.76.09-31.61.13-63.22.04-94.87-.04-7.9-.55-15.85-2.78-23.54-4.1-14.22-14.27-21.44-29.13-20.63-7.22.38-13.2,1.88-18.03,4.66-8.76,4.87-13.75,13.8-15.42,27.08-.34,2.78-.55,5.55-.73,8.33-.13,2.18-.17,4.36-.17,6.54.04,30.76-.04,61.51.09,92.27,0,3.08-.77,3.97-3.89,3.93-17.26-.13-34.52-.13-51.77,0-2.73,0-3.55-.73-3.55-3.55.09-60.87.09-121.79,0-182.66,0-3.03.98-3.72,3.85-3.72,16.36.13,32.76.13,49.12,0,3.03-.04,3.8.94,3.72,3.8-.17,7.26-.04,14.57-.04,21.83,3.93-4.44,7.22-8.93,11.28-12.77,12.47-11.75,27.21-17.68,44.47-17.51,9.44.04,18.84.73,27.94,3.37,20.89,6.07,33.02,20.42,38.83,40.84,4.31,15.29,5.12,31.01,5.17,46.73.04,33.28-.09,66.51-.04,99.74Z"/>
</svg>