<?xml version="1.0" encoding="UTF-8"?>
<svg id="Graphic_Elements" data-name="Graphic Elements" xmlns="http://www.w3.org/2000/svg" viewBox="0 0 576.68 576.68">
  <defs>
    <style>
      .cls-1 {
        fill: #010201;
      }
    </style>
  </defs>
  <path class="cls-1" d="M0,288.33c0,159.25,129.09,288.35,288.35,288.34,159.71,0,288.33-128.63,288.33-288.34C576.68,129.09,447.59,0,288.34,0,128.63,0,0,128.62,0,288.33ZM476,295.25l-146.92,146.96c-1.95,1.95-5.12,1.95-7.07,0l-33.72-33.72c-1.95-1.95-1.95-5.12,0-7.07l80.87-80.87H100.09c-2.76,0-5-2.24-5-5v-47.67c0-2.76,2.24-5,5-5h269.07l-80.87-80.83c-1.95-1.95-1.95-5.12,0-7.07l33.72-33.72c1.95-1.95,5.12-1.95,7.07,0l146.92,146.92c1.95,1.95,1.95,5.12,0,7.07Z"/>
</svg>