<?xml version="1.0" encoding="UTF-8"?>
<svg id="Graphic_Elements" data-name="Graphic Elements" xmlns="http://www.w3.org/2000/svg" viewBox="0 0 576.68 576.68">
  <defs>
    <style>
      .cls-1 {
        fill: #010201;
      }
    </style>
  </defs>
  <path class="cls-1" d="M288.34,0C129.09,0,0,129.09,0,288.34c0,159.71,128.62,288.34,288.33,288.34,159.25,0,288.34-129.09,288.34-288.34C576.68,128.62,448.05,0,288.34,0ZM432.89,423.92H143.79c-2.76,0-5-2.24-5-5v-47.67c0-2.76,2.24-5,5-5h289.1c2.76,0,5,2.24,5,5v47.67c0,2.76-2.24,5-5,5ZM432.89,317.17H143.79c-2.76,0-5-2.24-5-5v-47.67c0-2.76,2.24-5,5-5h289.1c2.76,0,5,2.24,5,5v47.67c0,2.76-2.24,5-5,5ZM432.89,210.42H143.79c-2.76,0-5-2.24-5-5v-47.67c0-2.76,2.24-5,5-5h289.1c2.76,0,5,2.24,5,5v47.67c0,2.76-2.24,5-5,5Z"/>
</svg>