<?xml version="1.0" encoding="UTF-8"?>
<svg id="Graphic_Elements" data-name="Graphic Elements" xmlns="http://www.w3.org/2000/svg" viewBox="0 0 576.68 576.68">
  <defs>
    <style>
      .cls-1 {
        fill: #010201;
      }
    </style>
  </defs>
  <path class="cls-1" d="M288.33,576.68c159.25,0,288.35-129.09,288.34-288.35C576.67,128.62,448.05,0,288.34,0,129.09,0,0,129.09,0,288.34c0,159.71,128.62,288.34,288.33,288.34ZM295.25,100.67l146.96,146.92c1.95,1.95,1.95,5.12,0,7.07l-33.72,33.72c-1.95,1.95-5.12,1.95-7.07,0l-80.87-80.87v269.07c0,2.76-2.24,5-5,5h-47.67c-2.76,0-5-2.24-5-5V207.52l-80.83,80.87c-1.95,1.95-5.12,1.95-7.07,0l-33.72-33.72c-1.95-1.95-1.95-5.12,0-7.07l146.92-146.92c1.95-1.95,5.12-1.95,7.07,0Z"/>
</svg>