<?xml version="1.0" encoding="UTF-8"?>
<svg id="Graphic_Elements" data-name="Graphic Elements" xmlns="http://www.w3.org/2000/svg" viewBox="0 0 576.68 576.68">
  <defs>
    <style>
      .cls-1 {
        fill: #010201;
      }
    </style>
  </defs>
  <path class="cls-1" d="M254.34,341.68l84.88-49.01c3.33-1.92,3.33-6.74,0-8.66l-84.88-49.01c-3.33-1.92-7.5.48-7.5,4.33v98.01c0,3.85,4.17,6.25,7.5,4.33Z"/>
  <path class="cls-1" d="M288.34,0C129.09,0,0,129.09,0,288.34c0,159.71,128.62,288.34,288.34,288.34,159.24,0,288.34-129.09,288.34-288.34C576.68,128.62,448.05,0,288.34,0ZM457.94,410.56H118.74c-2.76,0-5-2.24-5-5v-234.44c0-2.76,2.24-5,5-5h339.19c2.76,0,5,2.24,5,5v234.44c0,2.76-2.24,5-5,5Z"/>
</svg>